<svg xmlns="http://www.w3.org/2000/svg" viewBox="0 0 170 160"><defs><radialGradient id="g" cx="45%" cy="35%" r="70%"><stop offset="0" stop-color="#dffbff"/><stop offset="1" stop-color="#3aaee8"/></radialGradient><filter id="s"><feDropShadow dx="0" dy="4" stdDeviation="3" flood-opacity=".22"/></filter></defs><ellipse cx="84" cy="139" rx="48" ry="10" fill="#234" opacity=".15"/><g filter="url(#s)"><path d="M45 88c0-31 18-51 43-51 28 0 46 21 46 51 0 33-19 50-46 50-25 0-43-18-43-50Z" fill="url(#g)"/><path d="M50 93c-18 0-31-9-39-27 21-4 35 3 39 27ZM130 93c18 0 31-9 39-27-21-4-35 3-39 27Z" fill="#49c4ee"/><path d="M78 36c0-16 11-26 25-30 8 18-1 31-25 30Z" fill="#72dfff"/><ellipse cx="74" cy="86" rx="8" ry="12" fill="#123044"/><ellipse cx="106" cy="86" rx="8" ry="12" fill="#123044"/><circle cx="77" cy="80" r="3" fill="#fff"/><circle cx="109" cy="80" r="3" fill="#fff"/><path d="M84 103c8 8 17 8 25 0" fill="none" stroke="#146081" stroke-width="4" stroke-linecap="round"/><circle cx="58" cy="103" r="6" fill="#ffb4d0" opacity=".6"/><circle cx="123" cy="103" r="6" fill="#ffb4d0" opacity=".6"/></g><circle cx="132" cy="38" r="5" fill="#e7ffff" opacity=".8"/><circle cx="145" cy="53" r="3" fill="#e7ffff" opacity=".8"/></svg>