<svg xmlns="http://www.w3.org/2000/svg" viewBox="0 0 180 180"><defs><filter id="g"><feDropShadow dx="0" dy="4" stdDeviation="4" flood-color="#b15cff" flood-opacity=".7"/></filter></defs><ellipse cx="92" cy="145" rx="46" ry="14" fill="#231045" opacity=".25"/><g filter="url(#g)" stroke="#211832" stroke-width="5" stroke-linejoin="round"><path d="M82 79L25 48l19 62 37-13z" fill="#8c52ff"/><path d="M99 79l56-31-18 62-38-13z" fill="#7b3cff"/><ellipse cx="91" cy="94" rx="27" ry="34" fill="#3a3850"/><circle cx="80" cy="91" r="6" fill="#f7e66e"/><circle cx="101" cy="91" r="6" fill="#f7e66e"/><path d="M82 113c7 7 14 7 22 0" fill="none"/><path d="M68 62l-11-21M114 62l12-21"/><path d="M63 44c-15 1-22 11-21 23M137 44c14 1 22 11 21 23" fill="none" stroke="#eff8ff" stroke-width="6"/></g><path d="M35 85l-15-8 12-10M145 85l15-8-12-10" stroke="#ffe04a" stroke-width="5" fill="none"/></svg>