<svg xmlns="http://www.w3.org/2000/svg" viewBox="0 0 180 180"><defs><filter id="g"><feDropShadow dx="0" dy="5" stdDeviation="4" flood-color="#56f27b" flood-opacity=".55"/></filter></defs><ellipse cx="92" cy="146" rx="58" ry="13" fill="#14351d" opacity=".25"/><g filter="url(#g)" stroke="#233015" stroke-width="5" stroke-linecap="round" stroke-linejoin="round"><circle cx="86" cy="51" r="32" fill="#4cc75e"/><circle cx="117" cy="61" r="29" fill="#2fa943"/><circle cx="61" cy="68" r="27" fill="#68dc65"/><path d="M83 75c-6 27 7 41 23 50" stroke="#7a4a24" stroke-width="10"/><path d="M54 106c23-22 62-26 91 2-10 32-78 35-91-2z" fill="#b7692f"/><circle cx="70" cy="99" r="11" fill="#e08842"/><circle cx="121" cy="98" r="14" fill="#e08842"/><circle cx="132" cy="98" r="4" fill="#fff"/><circle cx="133" cy="99" r="2" fill="#111"/><path d="M58 119l-18 15M82 126l-12 23M115 126l13 21M138 116l20 13"/><path d="M61 94l-16-19M74 92l-4-23"/></g></svg>