<svg xmlns="http://www.w3.org/2000/svg" viewBox="0 0 175 160"><defs><radialGradient id="r" cx="45%" cy="35%" r="70%"><stop offset="0" stop-color="#ffd8ff"/><stop offset="1" stop-color="#9252d1"/></radialGradient><filter id="s"><feDropShadow dx="0" dy="4" stdDeviation="3" flood-opacity=".25"/></filter></defs><ellipse cx="84" cy="139" rx="50" ry="11" fill="#234" opacity=".17"/><g filter="url(#s)"><path d="M134 102c20-17 29-7 27 8-2 17-22 24-42 9" fill="none" stroke="#8144b8" stroke-width="9" stroke-linecap="round"/><circle cx="150" cy="104" r="13" fill="#ff77bc"/><circle cx="150" cy="104" r="6" fill="#ffe95f"/><path d="M43 92c0-34 20-54 48-54s48 20 48 54-20 47-48 47-48-13-48-47Z" fill="url(#r)"/><circle cx="55" cy="54" r="18" fill="#b76ae4"/><circle cx="126" cy="54" r="18" fill="#b76ae4"/><circle cx="58" cy="56" r="10" fill="#ffc2ee"/><circle cx="123" cy="56" r="10" fill="#ffc2ee"/><ellipse cx="73" cy="88" rx="8" ry="12" fill="#21152c"/><ellipse cx="108" cy="88" rx="8" ry="12" fill="#21152c"/><circle cx="76" cy="82" r="3" fill="#fff"/><circle cx="111" cy="82" r="3" fill="#fff"/><path d="M88 101c4 4 8 4 12 0" fill="none" stroke="#3a2150" stroke-width="4" stroke-linecap="round"/><path d="M85 118c9 5 19 5 28 0" fill="none" stroke="#e8c2ff" stroke-width="4" stroke-linecap="round"/><circle cx="60" cy="105" r="7" fill="#ff8fc6" opacity=".7"/><circle cx="122" cy="105" r="7" fill="#ff8fc6" opacity=".7"/><path d="M41 101c-13 5-23-1-31-12 13-6 25-1 31 12Z" fill="#a15cd8"/></g><path d="M29 38c6 0 9 3 9 8 0 7-9 12-9 12s-9-5-9-12c0-5 3-8 9-8Z" fill="#ffd35a" opacity=".8"/></svg>