<svg xmlns="http://www.w3.org/2000/svg" viewBox="0 0 170 160"><defs><radialGradient id="g" cx="40%" cy="30%" r="70%"><stop offset="0" stop-color="#ffe6bd"/><stop offset="1" stop-color="#9a7050"/></radialGradient><filter id="s"><feDropShadow dx="0" dy="4" stdDeviation="3" flood-opacity=".28"/></filter></defs><ellipse cx="84" cy="138" rx="52" ry="12" fill="#223" opacity=".18"/><g filter="url(#s)"><path d="M42 89c0-34 20-55 48-55s47 21 47 55-19 49-47 49-48-15-48-49Z" fill="url(#g)"/><path d="M45 58l-15-19 28 3zM120 58l18-19-30 3z" fill="#77563e"/><ellipse cx="72" cy="87" rx="8" ry="11" fill="#22180f"/><ellipse cx="108" cy="87" rx="8" ry="11" fill="#22180f"/><circle cx="75" cy="82" r="3" fill="#fff"/><circle cx="111" cy="82" r="3" fill="#fff"/><path d="M86 103c8 6 16 6 24 0" fill="none" stroke="#4b3425" stroke-width="4" stroke-linecap="round"/><path d="M59 69l20-18 14 14 16-17 21 22" fill="none" stroke="#fff3ce" stroke-width="6" stroke-linecap="round" opacity=".75"/><circle cx="56" cy="105" r="7" fill="#eaa070" opacity=".65"/><circle cx="124" cy="105" r="7" fill="#eaa070" opacity=".65"/></g></svg>