<svg xmlns="http://www.w3.org/2000/svg" viewBox="0 0 180 180"><defs><filter id="g"><feDropShadow dx="0" dy="5" stdDeviation="5" flood-color="#8dffef" flood-opacity=".75"/></filter></defs><ellipse cx="91" cy="146" rx="38" ry="13" fill="#1e4c48" opacity=".18"/><g filter="url(#g)" stroke="#263333" stroke-width="4" stroke-linejoin="round"><path d="M63 79c-33-34-58 23-18 35 22 7 31-18 18-35z" fill="#9cecff" opacity=".82"/><path d="M116 79c33-34 58 23 18 35-22 7-31-18-18-35z" fill="#9cecff" opacity=".82"/><circle cx="91" cy="56" r="21" fill="#ffe0b6"/><path d="M72 51c14-31 48-19 47 8-15-10-29-9-47-8z" fill="#ffd44f"/><path d="M70 89c14-22 29-23 43 0l12 47H58z" fill="#4fce72"/><circle cx="83" cy="58" r="4" fill="#222"/><circle cx="100" cy="58" r="4" fill="#222"/><path d="M82 71c7 6 13 6 20 0" fill="none"/><path d="M50 115l-19 20M130 115l20 20" stroke="#fff06b" stroke-width="6"/></g><circle cx="33" cy="45" r="4" fill="#fff76d"/><circle cx="145" cy="39" r="5" fill="#fff76d"/><circle cx="144" cy="124" r="4" fill="#fff76d"/></svg>