<svg xmlns="http://www.w3.org/2000/svg" viewBox="0 0 180 180"><defs><filter id="g"><feDropShadow dx="0" dy="4" stdDeviation="4" flood-color="#ff67d8" flood-opacity=".6"/></filter></defs><ellipse cx="90" cy="143" rx="48" ry="14" fill="#0a5771" opacity=".22"/><g filter="url(#g)" stroke="#213045" stroke-width="4" stroke-linejoin="round"><path d="M62 84c28-24 59-18 76 8-16 31-55 34-80 11l-25 15 11-26-10-23z" fill="#36d9c6"/><path d="M92 72c11 5 20 17 24 34" stroke="#ff71cb" fill="none"/><circle cx="119" cy="89" r="6" fill="#fff"/><circle cx="121" cy="90" r="2" fill="#111"/><path d="M45 129c-12-24 4-38 16-21 6-23 24-13 11 10 19-10 27 8 4 18" fill="#ff58c7"/><path d="M69 136c-7-19 7-30 17-14 8-14 22-6 10 10" fill="#a65cff"/></g><circle cx="51" cy="55" r="5" fill="#7df3ff"/><circle cx="142" cy="55" r="4" fill="#7df3ff"/></svg>