<svg xmlns="http://www.w3.org/2000/svg" viewBox="0 0 180 180"><defs><filter id="g"><feDropShadow dx="0" dy="5" stdDeviation="4" flood-color="#7b4cff" flood-opacity=".65"/></filter></defs><ellipse cx="91" cy="146" rx="45" ry="13" fill="#2d1536" opacity=".25"/><g filter="url(#g)" stroke="#2b2131" stroke-width="5" stroke-linejoin="round"><path d="M58 75h66l-8 67H67z" fill="#faf1df"/><path d="M61 70h60v18H61z" fill="#d7c3aa"/><circle cx="91" cy="111" r="18" fill="#42a86b"/><path d="M79 113c8-7 17-8 25 0" stroke="#fff" fill="none"/><path d="M83 58c-21-33 48-30 24 0 34-23 48 42 4 32 17 32-44 40-32 2-42 20-48-34 4-34z" fill="#4b245b"/><circle cx="82" cy="70" r="5" fill="#fff"/><circle cx="105" cy="70" r="5" fill="#fff"/><path d="M85 86c7 8 17 8 25 0" fill="none"/></g></svg>