<svg xmlns="http://www.w3.org/2000/svg" viewBox="0 0 180 180"><defs><filter id="g"><feDropShadow dx="0" dy="5" stdDeviation="4" flood-color="#38e8ff" flood-opacity=".55"/></filter></defs><ellipse cx="90" cy="146" rx="58" ry="13" fill="#291018" opacity=".25"/><g filter="url(#g)" stroke="#21141b" stroke-width="5" stroke-linejoin="round" stroke-linecap="round"><rect x="43" y="65" width="96" height="53" rx="10" fill="#e8edf0"/><rect x="55" y="78" width="13" height="9" fill="#343942"/><rect x="73" y="78" width="13" height="9" fill="#343942"/><rect x="91" y="78" width="13" height="9" fill="#343942"/><rect x="109" y="78" width="13" height="9" fill="#e94444"/><rect x="62" y="94" width="50" height="10" fill="#343942"/><path d="M48 109c-25-10-33 8-23 24 12 3 25-3 29-16" fill="#e34842"/><path d="M133 109c25-10 33 8 23 24-12 3-25-3-29-16" fill="#e34842"/><path d="M64 118l-9 20M86 119l-5 23M112 118l9 21"/><circle cx="70" cy="58" r="6" fill="#fff"/><circle cx="111" cy="58" r="6" fill="#fff"/></g><text x="15" y="48" font-family="Arial" font-size="16" font-weight="900" fill="#fff" stroke="#222" stroke-width="2">CLICK</text><text x="127" y="49" font-family="Arial" font-size="16" font-weight="900" fill="#fff" stroke="#222" stroke-width="2">CLICK</text></svg>