<svg xmlns="http://www.w3.org/2000/svg" viewBox="0 0 170 160"><defs><radialGradient id="b" cx="45%" cy="35%" r="75%"><stop offset="0" stop-color="#f5ffe9"/><stop offset="1" stop-color="#80c85f"/></radialGradient><filter id="s"><feDropShadow dx="0" dy="4" stdDeviation="3" flood-opacity=".25"/></filter></defs><ellipse cx="84" cy="138" rx="50" ry="11" fill="#234" opacity=".16"/><g filter="url(#s)"><path d="M52 72c-12-42-4-62 14-66 18 16 17 42 4 67Z" fill="#8bd26c"/><path d="M100 72c-8-42 2-62 21-62 15 19 10 43-4 66Z" fill="#8bd26c"/><path d="M35 91c0-35 22-55 52-55s52 21 52 55-22 48-52 48-52-14-52-48Z" fill="url(#b)"/><path d="M48 57c12-11 25-16 41-14 15 2 26 9 36 19-18-2-34-2-48 3-13 5-21 1-29-8Z" fill="#49a84d"/><ellipse cx="68" cy="90" rx="8" ry="12" fill="#1d2d22"/><ellipse cx="103" cy="90" rx="8" ry="12" fill="#1d2d22"/><circle cx="71" cy="85" r="3" fill="#fff"/><circle cx="106" cy="85" r="3" fill="#fff"/><path d="M80 104c5 6 11 6 16 0" fill="none" stroke="#365530" stroke-width="4" stroke-linecap="round"/><circle cx="56" cy="105" r="7" fill="#ffb1b8" opacity=".65"/><circle cx="117" cy="105" r="7" fill="#ffb1b8" opacity=".65"/><path d="M34 96c-16 0-22-8-25-21 15-1 25 6 25 21Z" fill="#70bd4f"/><path d="M140 96c16 0 23-8 26-21-15-1-25 6-26 21Z" fill="#70bd4f"/></g><circle cx="130" cy="45" r="5" fill="#f7ff9d"/><circle cx="143" cy="58" r="3" fill="#f7ff9d"/></svg>