<svg xmlns="http://www.w3.org/2000/svg" viewBox="0 0 100 100">
  <!-- shadow -->
  <ellipse cx="50" cy="85" rx="22" ry="7" fill="#000" opacity="0.3"/>
  <!-- coat -->
  <path d="M 32 45 L 68 45 L 75 80 L 25 80 Z" fill="#eeeeee" stroke="#9e9e9e" stroke-width="2"/>
  <!-- tie -->
  <path d="M 47 45 L 53 45 L 50 60 Z" fill="#ef5350"/>
  <!-- arms -->
  <path d="M 32 50 Q 25 60 30 70" fill="none" stroke="#eeeeee" stroke-width="8" stroke-linecap="round"/>
  <path d="M 68 50 Q 75 60 70 70" fill="none" stroke="#eeeeee" stroke-width="8" stroke-linecap="round"/>
  <!-- hands -->
  <circle cx="30" cy="70" r="4" fill="#ffccbc"/>
  <circle cx="70" cy="70" r="4" fill="#ffccbc"/>
  <!-- head -->
  <circle cx="50" cy="30" r="18" fill="#ffccbc" stroke="#d84315" stroke-width="2"/>
  <!-- hair (gray/prof) -->
  <path d="M 30 30 A 20 20 0 0 1 70 30 Q 78 40 66 20 Q 50 10 34 20 Q 22 40 30 30 Z" fill="#e0e0e0" stroke="#9e9e9e" stroke-width="2"/>
  <!-- glasses -->
  <rect x="36" y="26" width="10" height="6" rx="2" fill="#e3f2fd" stroke="#1565c0" stroke-width="2"/>
  <rect x="54" y="26" width="10" height="6" rx="2" fill="#e3f2fd" stroke="#1565c0" stroke-width="2"/>
  <line x1="46" y1="29" x2="54" y2="29" stroke="#1565c0" stroke-width="2"/>
  <!-- mustache -->
  <path d="M 42 38 Q 50 42 58 38" fill="none" stroke="#e0e0e0" stroke-width="3" stroke-linecap="round"/>
</svg>