<svg xmlns="http://www.w3.org/2000/svg" viewBox="0 0 180 180"><defs><filter id="g"><feDropShadow dx="0" dy="4" stdDeviation="5" flood-color="#ffe14c" flood-opacity=".8"/></filter></defs><ellipse cx="88" cy="145" rx="50" ry="13" fill="#3c2d08" opacity=".23"/><g filter="url(#g)" stroke="#2a2116" stroke-width="5" stroke-linejoin="round"><path d="M50 71l12-32 23 22 31-2 21-23 5 37c20 28 0 65-45 66-48 1-69-33-47-68z" fill="#d9c4aa"/><path d="M56 78l-20 6 21 9-20 13 29 3" stroke="#ffe24f" fill="none"/><path d="M125 77l20 7-20 9 22 12-30 4" stroke="#ffe24f" fill="none"/><circle cx="76" cy="91" r="7" fill="#fff34d"/><circle cx="111" cy="91" r="7" fill="#fff34d"/><path d="M86 105l8 7 8-7" fill="none"/><path d="M61 41l13 27M136 37l-23 31" fill="#9c765a"/></g></svg>