<svg xmlns="http://www.w3.org/2000/svg" viewBox="0 0 100 100">
<rect width="100" height="100" fill="none"/>
<!-- Shadow glow -->
<ellipse cx="50" cy="85" rx="25" ry="10" fill="#71f7ff" opacity="0.3"/>
<!-- Boots -->
<path d="M40 70 L40 85 L35 85 Z" fill="#071c35"/>
<path d="M60 70 L60 85 L65 85 Z" fill="#071c35"/>
<!-- Pants -->
<rect x="38" y="55" width="24" height="15" fill="#1c2c35"/>
<!-- Cyber jacket / coat -->
<path d="M35 35 L65 35 L65 60 L35 60 Z" fill="#ffffff" stroke="#33b6ac" stroke-width="2"/>
<path d="M48 35 L48 60 Z" stroke="#33b6ac" stroke-width="2"/>
<rect x="46" y="42" width="8" height="8" fill="#71f7ff" rx="4"/>
<!-- Arms -->
<path d="M35 38 L25 55 L28 58 L38 41 Z" fill="#ffffff"/>
<path d="M65 38 L75 55 L72 58 L62 41 Z" fill="#ffffff"/>
<!-- Scanner Device on wrist -->
<rect x="23" y="50" width="8" height="6" fill="#071c35" rx="2"/>
<circle cx="27" cy="53" r="1.5" fill="#71f7ff"/>
<!-- Head/Cap -->
<rect x="38" y="15" width="24" height="20" fill="#ffcdb2" rx="10"/>
<path d="M35 18 L65 18 L60 10 L40 10 Z" fill="#071c35"/>
<path d="M35 18 L65 18 L65 22 L35 22 Z" fill="#33b6ac"/>
<!-- Eyes -->
<circle cx="45" cy="27" r="2" fill="#071c35"/>
<circle cx="55" cy="27" r="2" fill="#071c35"/>
</svg>