<svg xmlns="http://www.w3.org/2000/svg" viewBox="0 0 160 160"><defs><radialGradient id="g" cx="45%" cy="35%" r="70%"><stop offset="0" stop-color="#dfffd2"/><stop offset="1" stop-color="#57c86b"/></radialGradient><filter id="s"><feDropShadow dx="0" dy="4" stdDeviation="3" flood-opacity=".25"/></filter></defs><ellipse cx="80" cy="138" rx="46" ry="10" fill="#234" opacity=".18"/><g filter="url(#s)"><path d="M37 76c0-33 21-54 45-54s43 21 43 55c0 35-21 59-45 59S37 112 37 76Z" fill="url(#g)"/><path d="M70 27c-6-19 5-29 23-24 1 16-7 27-23 24Z" fill="#32a852"/><path d="M82 28c7-18 22-20 34-8-7 15-19 18-34 8Z" fill="#70d961"/><path d="M42 82c-17 3-24-6-25-20 15-3 24 4 25 20Z" fill="#49bd63"/><path d="M119 82c16 3 24-6 25-20-15-3-25 4-25 20Z" fill="#49bd63"/><ellipse cx="64" cy="76" rx="10" ry="13" fill="#14251a"/><ellipse cx="96" cy="76" rx="10" ry="13" fill="#14251a"/><circle cx="68" cy="71" r="3" fill="#fff"/><circle cx="100" cy="71" r="3" fill="#fff"/><path d="M69 98c8 8 18 8 26 0" fill="none" stroke="#214d2c" stroke-width="5" stroke-linecap="round"/><circle cx="48" cy="94" r="8" fill="#ff9db4" opacity=".75"/><circle cx="112" cy="94" r="8" fill="#ff9db4" opacity=".75"/><path d="M80 45c7 15 9 31 3 51" fill="none" stroke="#2f994a" stroke-width="3" opacity=".65"/></g><path d="M128 32l8 5 9-5-4 10 7 7-10-1-5 9-3-10-10-2 9-5z" fill="#fff17a" opacity=".75"/></svg>