<svg xmlns="http://www.w3.org/2000/svg" viewBox="0 0 180 180"><defs><filter id="g"><feDropShadow dx="0" dy="5" stdDeviation="4" flood-color="#16d6ff" flood-opacity=".55"/></filter><linearGradient id="b" x1="0" x2="1"><stop stop-color="#22d2cb"/><stop offset="1" stop-color="#126496"/></linearGradient></defs><ellipse cx="92" cy="145" rx="55" ry="14" fill="#0b3552" opacity=".25"/><g filter="url(#g)" stroke="#082b3c" stroke-width="5" stroke-linejoin="round"><path d="M33 100c14-45 63-65 98-39 25 19 16 55-18 66-37 13-72 4-80-27z" fill="url(#b)"/><path d="M88 59l18-35 9 41" fill="#19b4c0"/><path d="M52 113l-15 29 34-16" fill="#0e6c8b"/><path d="M119 114l22 25-39-9" fill="#0e6c8b"/><path d="M116 82c14 3 25 9 30 20-14 8-31 7-45-1" fill="#f7edce"/><circle cx="116" cy="76" r="5" fill="#fff"/><circle cx="118" cy="76" r="2" fill="#06131d"/><path d="M126 99l7 9 6-9 6 8" fill="none" stroke="#082b3c" stroke-width="4"/></g><path d="M18 135c22 8 42 7 63 0M108 136c25 8 46 6 61-3" stroke="#52eaff" stroke-width="4" fill="none" opacity=".8"/></svg>