<svg xmlns="http://www.w3.org/2000/svg" viewBox="0 0 180 180"><defs><filter id="g"><feDropShadow dx="0" dy="5" stdDeviation="5" flood-color="#4a51ff" flood-opacity=".7"/></filter></defs><ellipse cx="91" cy="147" rx="47" ry="13" fill="#07071a" opacity=".3"/><g filter="url(#g)" stroke="#070817" stroke-width="5" stroke-linejoin="round"><path d="M51 100c0-39 27-62 62-51 43 14 38 76 2 87-15 4-15 18-42 12 11-15-22-17-22-48z" fill="#171a37"/><path d="M54 108c-20 0-31 22-17 38 6-17 25-19 37-12" fill="#232750"/><path d="M77 85l22 7-24 8z" fill="#fff"/><path d="M116 85l-22 7 24 8z" fill="#fff"/><path d="M77 116c17 13 34 13 49 0-12 25-38 26-49 0z" fill="#fff"/></g></svg>