<svg xmlns="http://www.w3.org/2000/svg" viewBox="0 0 180 180"><defs><filter id="g"><feDropShadow dx="0" dy="5" stdDeviation="5" flood-color="#ff6b1a" flood-opacity=".8"/></filter></defs><ellipse cx="92" cy="146" rx="45" ry="13" fill="#531b09" opacity=".28"/><g filter="url(#g)" stroke="#32130b" stroke-width="5" stroke-linejoin="round"><path d="M61 116c-6-33 17-42 23-75 30 22 46 42 33 81-12 25-48 24-56-6z" fill="#ff7b1f"/><path d="M83 122c-5-19 9-24 11-43 17 16 25 29 16 48" fill="#ffd24a"/><path d="M47 72c29-18 66-18 92 0-7 25-83 27-92 0z" fill="#5f646b"/><path d="M40 69c30 12 79 13 106 0" fill="none" stroke="#c7d0d8"/><circle cx="78" cy="102" r="5" fill="#45100a"/><circle cx="106" cy="102" r="5" fill="#45100a"/><path d="M79 119c11 5 20 5 30 0" fill="none"/></g><path d="M42 35c14-18 34-12 22 5M126 31c19-8 28 8 11 18" stroke="#6d6d6d" stroke-width="7" fill="none" opacity=".6"/></svg>